<svg xmlns="http://www.w3.org/2000/svg" width="98" height="18">
    <path fill="#151515" fill-rule="evenodd" d="M98 17.999h-5.026l-4.188-5.625-4.188 5.625h-5.026l6.701-9-6.701-9h5.026l4.188 5.625 4.188-5.625H98l-6.701 9 6.701 9zm-34.342-18h12.564v3.273h-8.376v4.09h7.538v3.273h-7.538v4.091h8.376v3.273H63.658v-18zm-21.778 0l11.726 9v-9h4.188v18L41.88 4.908V-.001zm-14.239 18c-5.089 0-9.214-4.03-9.214-9 0-.545.058-1.076.153-1.595l4.796 4.165c.886 1.399 2.457 2.339 4.265 2.339 2.775 0 5.025-2.198 5.025-4.909s-2.25-4.909-5.025-4.909c-1.88 0-3.499 1.019-4.361 2.512l-3.201-2.737c1.664-2.335 4.428-3.866 7.562-3.866 5.088 0 9.213 4.029 9.213 9 0 4.97-4.125 9-9.213 9zm-13.402-3.273v3.273H0L8.376 4.908H.837V.817h14.24L6.701 14.726h7.538zm31.829 3.273H41.88V9.817l4.188 2.454v5.728z"/>
</svg>
